<svg viewBox="0 0 200 200" xmlns="http://www.w3.org/2000/svg">
  <path fill="#F2F4F8" d="M42.7,-73C52.2,-68.4,54.7,-50.7,60.9,-36.4C67,-22,76.9,-11,78.6,1C80.4,13,73.9,25.9,64.5,34.8C55.2,43.7,42.9,48.4,31.7,56.1C20.5,63.7,10.2,74.2,-2.9,79.2C-16,84.2,-32,83.6,-43.6,76.2C-55.1,68.7,-62.3,54.4,-69.2,40.6C-76.1,26.7,-82.7,13.4,-83,-0.2C-83.3,-13.7,-77.3,-27.4,-70.4,-41.4C-63.6,-55.4,-56,-69.7,-44.2,-72.8C-32.3,-76,-16.2,-68.1,0.2,-68.5C16.6,-68.9,33.2,-77.5,42.7,-73Z" transform="translate(100 100)" />
</svg>