<svg data-v-423bf9ae="" xmlns="http://www.w3.org/2000/svg" viewBox="0 0 378.5142844063895 60" class="font"><!----><!----><!----><g data-v-423bf9ae="" id="b0caf8fd-c23f-412c-94cf-0a9ca904d3c5" fill="black" transform="matrix(4.285714285714286,0,0,4.285714285714286,-6.342857837677002,-13.19999967302595)"><path d="M9.16 3.78L9.16 8.37L2.58 8.37L2.58 3.78L1.48 3.78L1.48 14L2.58 14L2.58 9.41L9.16 9.41L9.16 14L10.25 14L10.25 3.78ZM15.68 6.58C13.96 6.58 12.74 7.56 12.64 9.02L13.64 9.02C13.69 8.18 14.49 7.49 15.64 7.49C16.93 7.49 17.68 8.16 17.68 9.67L17.68 9.94L15.41 9.93C13.50 9.93 12.35 10.79 12.35 12.01C12.35 13.27 13.40 14.14 14.74 14.14C16.03 14.14 17.05 13.55 17.81 12.96L18.02 14L18.70 14L18.70 9.67C18.70 7.70 17.61 6.58 15.68 6.58ZM13.38 12.00C13.38 11.19 14.10 10.79 15.43 10.79L17.68 10.79L17.68 12.11C16.93 12.70 15.97 13.22 14.95 13.22C14.10 13.22 13.38 12.78 13.38 12.00ZM24.56 6.58C23.79 6.58 22.92 6.97 21.98 7.76L21.80 6.72L21.06 6.72L21.06 14L22.09 14L22.09 8.75C23.00 7.98 23.74 7.59 24.36 7.59C24.68 7.59 24.96 7.64 25.20 7.73L25.33 6.71C25.12 6.64 24.86 6.58 24.56 6.58ZM26.45 8.54C26.45 11.48 31.40 10.02 31.42 12.05C31.43 12.88 30.62 13.29 29.44 13.29C28.22 13.29 27.24 12.75 27.05 11.69L26.05 11.69C26.28 13.34 27.76 14.14 29.41 14.14C31.14 14.14 32.44 13.40 32.44 12.05C32.44 9.14 27.47 10.57 27.47 8.54C27.47 7.94 28.07 7.43 29.34 7.43C30.74 7.43 31.23 8.13 31.33 8.99L32.30 8.99C32.21 7.70 31.30 6.58 29.37 6.58C27.44 6.58 26.45 7.43 26.45 8.54ZM38.50 6.58C37.42 6.58 36.41 6.99 35.32 7.74L35.32 3.08L34.33 3.08L34.33 14L35.36 14L35.36 8.65C36.36 7.98 37.41 7.50 38.29 7.50C39.35 7.50 39.98 8.12 39.98 9.30L39.98 14L41.02 14L41.02 9.25C41.02 7.50 40.08 6.58 38.50 6.58ZM52.39 14L53.87 14.01L49.88 10.35C52.16 10.25 53.79 8.99 53.79 7.11C53.79 5.12 52.04 3.78 49.63 3.78L47.42 3.78L47.42 14L48.51 14L48.51 10.35ZM49.62 4.73C51.46 4.73 52.68 5.68 52.68 7.11C52.68 8.51 51.46 9.42 49.63 9.42L48.51 9.42L48.51 4.73ZM58.46 6.58C56.74 6.58 55.52 7.56 55.43 9.02L56.42 9.02C56.48 8.18 57.27 7.49 58.42 7.49C59.71 7.49 60.47 8.16 60.47 9.67L60.47 9.94L58.20 9.93C56.28 9.93 55.13 10.79 55.13 12.01C55.13 13.27 56.18 14.14 57.53 14.14C58.81 14.14 59.84 13.55 60.59 12.96L60.80 14L61.49 14L61.49 9.67C61.49 7.70 60.40 6.58 58.46 6.58ZM56.17 12.00C56.17 11.19 56.88 10.79 58.21 10.79L60.47 10.79L60.47 12.11C59.71 12.70 58.76 13.22 57.74 13.22C56.88 13.22 56.17 12.78 56.17 12.00ZM64.48 5.10C64.92 5.10 65.28 4.73 65.28 4.27C65.28 3.85 64.92 3.50 64.48 3.50C64.04 3.50 63.69 3.85 63.69 4.27C63.69 4.73 64.04 5.10 64.48 5.10ZM63.27 16.90C64.30 16.90 64.99 16.16 64.99 14.98L64.99 6.72L63.95 6.72L63.95 14.91C63.95 15.64 63.56 15.97 63.01 15.97C62.73 15.97 62.48 15.92 62.27 15.85L62.16 16.74C62.44 16.84 62.85 16.90 63.27 16.90ZM71.16 6.58C69.97 6.58 69.01 7.04 68.36 7.85L68.22 6.72L67.47 6.72L67.47 17.08L68.43 17.08L68.43 12.94C69.06 13.69 69.94 14.14 71.15 14.14C73.16 14.14 74.79 12.46 74.79 10.33C74.79 8.23 73.15 6.58 71.16 6.58ZM71.06 13.23C69.85 13.23 69.01 12.63 68.50 11.63L68.50 9.07C68.98 8.12 69.85 7.49 71.06 7.49C72.48 7.49 73.72 8.72 73.72 10.33C73.72 11.96 72.51 13.23 71.06 13.23ZM82.05 6.72L82.05 12.18C81.12 12.82 80.16 13.22 79.34 13.22C78.25 13.22 77.64 12.60 77.64 11.42L77.64 6.72L76.59 6.72L76.59 11.47C76.59 13.22 77.53 14.14 79.07 14.14C80.15 14.14 81.10 13.78 82.18 13.06L82.36 14L83.10 14L83.10 6.72ZM84.66 7.62L85.79 7.62L85.79 12.00C85.79 13.57 86.66 14.14 87.78 14.14C88.52 14.14 89.22 13.99 89.80 13.73L89.68 12.84C89.17 13.06 88.58 13.22 87.93 13.22C87.25 13.22 86.83 12.85 86.83 11.98L86.83 7.62L89.75 7.62L89.75 6.72L86.83 6.72L86.83 4.65L85.82 4.91L85.82 6.72L84.66 6.72Z"></path></g><!----><!----></svg>